<svg width="20" height="20" viewBox="0 0 20 20" fill="none" xmlns="http://www.w3.org/2000/svg">
<path d="M10.0003 13.3334C11.8413 13.3334 13.3337 11.841 13.3337 10.0001C13.3337 8.15913 11.8413 6.66675 10.0003 6.66675C8.15938 6.66675 6.66699 8.15913 6.66699 10.0001C6.66699 11.841 8.15938 13.3334 10.0003 13.3334Z" stroke="white" stroke-width="1.25" stroke-linecap="round" stroke-linejoin="round"/>
<path d="M13.3333 10.0001V11.2501C13.3333 11.8027 13.5528 12.3326 13.9435 12.7233C14.3342 13.114 14.8641 13.3334 15.4167 13.3334C15.9692 13.3334 16.4991 13.114 16.8898 12.7233C17.2805 12.3326 17.5 11.8027 17.5 11.2501V10.0001C17.5021 8.38854 16.985 6.81915 16.0253 5.52444C15.0657 4.22974 13.7145 3.27858 12.172 2.81187C10.6295 2.34516 8.97764 2.38772 7.4612 2.93325C5.94476 3.47878 4.64437 4.49827 3.75267 5.84068C2.86097 7.18309 2.42539 8.77703 2.51046 10.3864C2.59553 11.9957 3.19671 13.5348 4.22496 14.7758C5.25321 16.0167 6.65383 16.8934 8.21933 17.276C9.78483 17.6587 11.4319 17.5268 12.9167 16.9001" stroke="white" stroke-width="1.25" stroke-linecap="round" stroke-linejoin="round"/>
</svg>
